<svg width="104" height="106" viewBox="0 0 104 106" xmlns="http://www.w3.org/2000/svg" fill-rule="evenodd" clip-rule="evenodd" stroke-linejoin="round" stroke-miterlimit="2">
    <path d="M54.041 105.002c22.996-2.114 40.583-18.174 46.133-34.852 9.24-27.77-3.637-51.726-14.351-61.996.88 5.686-2.47 8.049-2.47 8.049S81.837 7.789 70.063 0c3.681 14.537-2.617 27.338-14.005 36.55-5.767 4.664-8.376 11.769-7.127 27.537 8.731-8.486 10.709-4.458 15.693-11.415-4.197 17.698-14.842 23.799-18.781 32.733-3.938 8.934-1.833 12.841-1.833 12.841s3.723-9.006 17.732-14.675c14.01-5.669 22.944-29.668 21.614-40.118 7.253 12.346 17.533 44.747-29.315 61.549z" fill="url(#_Linear1)"/>
    <circle cx="48.78" cy="56.495" r="48.78" fill="#0971ff"/>
    <path d="M48.947 10.467c16.852.083 33.183 9.974 40.938 25.212 6.381 12.538 6.595 28.024.434 40.795-6.249 12.953-18.787 22.621-32.949 25.291-16.561 3.121-34.563-3.553-45.064-17.153C4.453 74.44 1.17 60.887 3.474 48.229 6.136 33.609 16.31 20.612 29.97 14.481c5.855-2.627 12.249-3.983 18.679-4.014h.298zm-.286 3.609c-17.543.084-34.337 11.861-40.088 28.833-4.325 12.764-2.125 27.512 5.828 38.476 7.82 10.782 20.928 17.567 34.397 17.567 15.773 0 31.252-9.501 38.268-24.046 6.653-13.791 5.151-31.215-4.25-43.776-7.833-10.467-20.555-16.99-33.881-17.054h-.274z" fill="#fff" fill-rule="nonzero"/>
    <path d="M35.046 19.731L45.175 29.86a1.017 1.017 0 010 1.438l-6.036 6.036a1.018 1.018 0 01-1.439 0L25.395 25.029a39.528 39.528 0 019.651-5.298zM62.943 19.425a39.565 39.565 0 019.51 5.247L41.432 55.693a1.014 1.014 0 000 1.438l3.747 3.747a1.017 1.017 0 010 1.438l-6.036 6.036a1.018 1.018 0 01-1.439 0l-4.465-4.465h-.001l-.002.001h-.001l-6.658-6.658a1.018 1.018 0 010-1.439l36.366-36.366z" fill="#fff"/>
    <path d="M25.393 88.392l30.904-30.904a1.018 1.018 0 000-1.439l-3.769-3.768a1.018 1.018 0 010-1.439l6.036-6.036a1.018 1.018 0 011.439 0l4.485 4.486h.005l.001-.001.002-.001.003.001 6.656 6.657a1.016 1.016 0 010 1.438L34.978 93.564a39.531 39.531 0 01-9.585-5.172zM62.837 93.468l-9.771-9.771a1.015 1.015 0 010-1.438l6.036-6.036a1.017 1.017 0 011.438 0l11.939 11.939a39.549 39.549 0 01-9.642 5.306z" fill="#fff"/>
    <path d="M53.997 105.002c1.651-.114 5.297-.729 8.276-1.611 14.485-4.286 26.482-14.364 32.763-25.541 9.619-17.116 7.11-45.828-6.686-58.887.056 4.999-.282 6.128-.282 6.128S82.36 14.769 73.6 11.213c2.388 4.353 10.749 19.444 2.022 30.545-4.583 5.831-18.47 12.731-17.222 28.499 8.732-8.486 9.11-3.682 14.094-10.639-4.197 17.698-9.064 15.103-13.003 24.037s-1.833 12.841-1.833 12.841 5.488-8.888 11.289-9.992c5.729-1.09 14.858-3.165 16.574-12.323 1.492 9.021-9.583 25.502-31.524 30.821z" fill="url(#_Linear2)"/>
    <defs>
        <linearGradient id="_Linear1" x1="0" y1="0" x2="1" y2="0" gradientUnits="userSpaceOnUse" gradientTransform="scale(49.4138) rotate(31.528 -.121 2.424)">
            <stop offset="0" stop-color="#f9db35"/>
            <stop offset="1" stop-color="#fe467a"/>
        </linearGradient>
        <linearGradient id="_Linear2" x1="0" y1="0" x2="1" y2="0" gradientUnits="userSpaceOnUse" gradientTransform="rotate(161.703 48.044 29.01) scale(45.6759)">
            <stop offset="0" stop-color="#f9db35"/>
            <stop offset="1" stop-color="#fe467a"/>
        </linearGradient>
    </defs>
</svg>
